<?xml version="1.0" encoding="UTF-8" standalone="no"?>
<svg width="70px" height="70px" viewBox="0 0 70 70" version="1.1" xmlns="http://www.w3.org/2000/svg" xmlns:xlink="http://www.w3.org/1999/xlink" xmlns:sketch="http://www.bohemiancoding.com/sketch/ns">
    <!-- Generator: Sketch 3.3.2 (12043) - http://www.bohemiancoding.com/sketch -->
    <title>bread4 + bread4 2</title>
    <desc>Created with Sketch.</desc>
    <defs></defs>
    <g id="leket-mobile-screens" stroke="none" stroke-width="1" fill="none" fill-rule="evenodd" sketch:type="MSPage">
        <g id="leket-mobile-main" sketch:type="MSArtboardGroup" transform="translate(-287.000000, -613.000000)" fill="#5C5344">
            <g id="bread4-+-bread4-2" sketch:type="MSLayerGroup" transform="translate(287.000000, 613.000000)">
                <path d="M62.4378188,1.49622332 C61.417162,0.503450653 59.9458172,0 58.0631148,0 C53.0289815,0 45.386306,3.54566151 36.5385721,9.98267136 C27.0641304,16.5827885 14.7709544,29.7068852 11.5495669,33.9258551 C1.40344529,46.6336277 -2.43175481,56.9302689 1.54255249,60.7997904 C2.56385404,61.7974295 4.03922859,62.3021361 5.92048023,62.3021361 L5.92241452,62.3021361 C13.7319219,62.3021361 28.021923,53.4974796 41.480021,40.3886105 C49.6968562,32.3842631 56.3844793,24.0081755 60.3178443,16.8009976 C64.3035961,9.48408724 65.0566771,4.04911216 62.4378188,1.49622332 L62.4378188,1.49622332 Z M21.5390115,44.5818348 C19.3377971,43.8686523 16.625932,42.5564153 13.9013329,40.8871946 C12.6956297,40.1501504 11.5049171,39.3382243 10.357726,38.4729234 C11.0742167,37.4923956 11.8392258,36.4897329 12.6326043,35.4815757 C13.8075202,36.0708971 14.9850151,36.7270941 16.1365584,37.4310145 C18.8548711,39.0959966 21.2443557,40.9098004 22.8619,42.538519 C24.4770265,44.1642549 24.6299961,44.9154277 24.6475658,45.0601678 C24.5008827,45.1154265 23.8511247,45.3348915 21.5390115,44.5818348 L21.5390115,44.5818348 Z M39.0313796,30.7568004 C39.0010758,30.7990293 38.7612247,30.9578981 38.0768108,30.9578981 C37.4710578,30.9578981 36.3602956,30.8308973 34.512894,30.2343546 C31.5542465,29.2739208 27.9136031,27.511608 24.2623211,25.273317 C23.737808,24.9532247 23.2195812,24.6147652 22.6944233,24.2693984 C24.1785022,22.7879317 25.701589,21.336449 27.2203237,19.951842 C27.3368643,20.0229562 27.4514706,20.0915586 27.5672052,20.1614169 C31.2160694,22.3967252 34.422305,24.8336022 36.5933768,27.0155357 C38.7907225,29.2285522 39.1861223,30.5120609 39.0313796,30.7568004 L39.0313796,30.7568004 Z M49.6409232,14.9030498 C49.6409232,14.9030498 49.5105203,14.9859379 49.1019029,14.9859379 C48.6687847,14.9859379 47.8639617,14.8920609 46.492716,14.4487355 C44.29263,13.734925 41.5826992,12.4237869 38.8574553,10.7528394 C38.8028118,10.7178318 38.7497802,10.6853359 38.6975546,10.6522121 C39.9651548,9.75504322 41.2137347,8.91015035 42.4187931,8.1442209 C47.8979728,11.7456121 49.7919585,14.5689859 49.6409232,14.9030498 L49.6409232,14.9030498 Z" id="bread4" sketch:type="MSShapeGroup"></path>
                <path d="M67.4315915,15.5627457 C66.5408049,14.9289331 65.3832464,14.7317444 63.9899502,14.9769689 C60.2644336,15.6326714 55.0922123,19.3665835 49.4226651,25.4905497 C43.3115756,31.8221192 36.0045731,43.5595396 34.1961937,47.2375936 C28.4213206,58.3738151 26.9878916,66.825826 30.4570182,69.2967396 C31.3489459,69.9342268 32.5096579,70.1318606 33.9018805,69.8868251 L33.903312,69.8865731 C39.6827475,68.8693745 49.0568228,60.207926 57.2280048,48.3305338 C62.2168159,41.0782312 66.0232136,33.7380018 67.9507986,27.6593098 C69.9021813,21.489044 69.7179825,17.193325 67.4315915,15.5627457 L67.4315915,15.5627457 L67.4315915,15.5627457 Z M43.0427361,54.1664565 C41.3164221,53.9023508 39.1304688,53.2420864 36.8863868,52.3077691 C35.8935465,51.8955674 34.9015837,51.4235792 33.9345467,50.904699 C34.3310089,50.0540778 34.7603571,49.1800414 35.2099506,48.2980663 C36.1598522,48.6001863 37.1207866,48.9536209 38.0690265,49.3472942 C40.3078779,50.2791567 42.3236841,51.36879 43.7429629,52.4160214 C45.1600455,53.461264 45.3757366,54.0214977 45.4084866,54.1309973 C45.3074727,54.1927813 44.8565611,54.4469139 43.0427361,54.1664565 L43.0427361,54.1664565 L43.0427361,54.1664565 Z M54.1017751,41.2104749 C54.0851102,41.2470369 53.9292832,41.400978 53.4227819,41.4901238 C52.9744936,41.5690239 52.1351455,41.6156148 50.6865847,41.3955096 C48.3659979,41.0390994 45.4312952,40.1521997 42.4237797,38.8990703 C41.9919416,38.7201699 41.5622497,38.526265 41.1264861,38.3279281 C42.0226575,36.9904342 42.9517877,35.6710172 43.8868213,34.4038175 C43.9827697,34.443562 44.0769439,34.4816186 44.1721245,34.5204981 C47.1774438,35.7716388 49.8826961,37.2361112 51.7870911,38.6385129 C53.715171,40.061499 54.1829017,41.0012982 54.1017751,41.2104749 L54.1017751,41.2104749 L54.1017751,41.2104749 Z M59.7903848,27.5841387 C59.7903848,27.5841387 59.7051887,27.6651413 59.4027909,27.7183643 C59.0822612,27.7747785 58.4738429,27.8071032 57.3985661,27.6433133 C55.6730015,27.3785756 53.4886296,26.718908 51.2438349,25.783341 C51.1986196,25.7634207 51.15494,25.7452304 51.1117711,25.7264501 C51.9274556,24.8684273 52.7361963,24.0532566 53.5235022,23.3047409 C58.0697292,25.3725561 59.8565808,27.3064565 59.7903848,27.5841387 L59.7903848,27.5841387 L59.7903848,27.5841387 Z" id="bread4-2" fill-opacity="0.699999988" sketch:type="MSShapeGroup"></path>
            </g>
        </g>
    </g>
</svg>