<?xml version="1.0" encoding="UTF-8" standalone="no"?>
<svg width="70px" height="51px" viewBox="0 0 70 51" version="1.1" xmlns="http://www.w3.org/2000/svg" xmlns:xlink="http://www.w3.org/1999/xlink" xmlns:sketch="http://www.bohemiancoding.com/sketch/ns">
    <!-- Generator: Sketch 3.3.2 (12043) - http://www.bohemiancoding.com/sketch -->
    <title>covered16</title>
    <desc>Created with Sketch.</desc>
    <defs></defs>
    <g id="leket-mobile-screens" stroke="none" stroke-width="1" fill="none" fill-rule="evenodd" sketch:type="MSPage">
        <g id="leket-mobile-main" sketch:type="MSArtboardGroup" transform="translate(-285.000000, -977.000000)" fill="#5C5344">
            <g id="covered16" sketch:type="MSLayerGroup" transform="translate(285.000000, 977.000000)">
                <path d="M10.8769231,42.8135737 C10.9292735,41.8466987 10.9990741,40.8762821 11.1212251,39.8952404 C11.351567,37.5719071 11.843661,35.2344071 12.3462251,32.9641987 C12.6603276,31.8308654 13.0023504,30.7081571 13.3548433,29.6173237 C13.805057,28.5512821 14.2413105,27.4852404 14.6775641,26.4475321 C15.6722222,24.4287821 16.7785613,22.5339904 18.1152422,20.9437821 C18.4293447,20.5400321 18.7399573,20.1398237 19.0400997,19.7396154 C19.3960826,19.3925321 19.7381054,19.0454487 20.0766382,18.7019071 C20.785114,18.0502404 21.399359,17.3454487 22.1078348,16.8319071 C23.5247863,15.7694071 24.7811966,14.7564904 26.0480769,14.1366987 C27.276567,13.4425321 28.3270655,12.8333654 29.2798433,12.4898237 C31.1330484,11.7425321 32.1975071,11.3564904 32.1975071,11.3564904 C32.1975071,11.3564904 31.2970798,12.0754487 29.7160969,13.2512821 C28.9099003,13.7896154 28.0513533,14.6466987 27.0148148,15.5179487 C25.9538462,16.3502404 24.9836182,17.5402404 23.8388889,18.6735737 C23.2525641,19.2544071 22.8163105,19.9875321 22.2718661,20.6639904 C21.9996439,20.9969071 21.7274217,21.3439904 21.4551994,21.7016987 C21.2213675,22.0912821 20.9910256,22.4773237 20.7606838,22.8775321 C19.7381054,24.4004487 18.9737892,26.1996154 18.1815527,28.0129487 C17.8674501,28.9656571 17.5428775,29.9360737 17.2008547,30.9029487 C16.9705128,31.9264904 16.7227208,32.9500321 16.4365385,33.9594071 C16.0282051,36.0631571 15.6198718,38.2094071 15.4418803,40.4087821 C15.3197293,41.2091987 15.2638889,42.0131571 15.1836182,42.8135737 C32.4138889,42.8277404 45.7632479,42.8277404 64.4244302,42.8277404 C64.4802707,41.9989904 64.522151,41.1666987 64.522151,40.3237821 C64.522151,24.3721154 53.0678775,11.2289904 38.3329772,9.48649038 C39.2717949,8.58690705 39.8860399,7.30128205 39.8860399,5.87753205 C39.8860399,3.13628205 37.7047721,0.922740385 35.0069801,0.922740385 C32.305698,0.922740385 30.1244302,3.13628205 30.1244302,5.87753205 C30.1244302,7.30128205 30.7247151,8.58690705 31.6774929,9.48649038 C16.9425926,11.2289904 5.477849,24.3721154 5.477849,40.3237821 C5.477849,41.1560737 5.51623932,41.9848237 5.57207977,42.8135737 L10.8769231,42.8135737 Z" id="Fill-1" sketch:type="MSShapeGroup"></path>
                <path d="M0.106695157,44.6552404 L69.907265,44.6552404 L69.907265,50.9098237 L0.106695157,50.9098237 L0.106695157,44.6552404 Z" id="Fill-2" sketch:type="MSShapeGroup"></path>
            </g>
        </g>
    </g>
</svg>