<?xml version="1.0" encoding="UTF-8" standalone="no"?>
<svg width="70px" height="35px" viewBox="0 0 70 35" version="1.1" xmlns="http://www.w3.org/2000/svg" xmlns:xlink="http://www.w3.org/1999/xlink" xmlns:sketch="http://www.bohemiancoding.com/sketch/ns">
    <!-- Generator: Sketch 3.3.2 (12043) - http://www.bohemiancoding.com/sketch -->
    <title>bread14</title>
    <desc>Created with Sketch.</desc>
    <defs></defs>
    <g id="leket-mobile-screens" stroke="none" stroke-width="1" fill="none" fill-rule="evenodd" sketch:type="MSPage">
        <g id="leket-mobile-main" sketch:type="MSArtboardGroup" transform="translate(-286.000000, -187.000000)" fill="#5C5344">
            <g id="bread14" sketch:type="MSLayerGroup" transform="translate(286.000000, 187.000000)">
                <path d="M58.36177,5.91077446 C58.3396877,5.90347769 58.3249661,5.88888414 58.304724,5.87611479 C57.879639,5.59701329 57.3257405,5.58241974 56.8877742,5.83963094 C56.4424471,6.09684213 56.1903405,6.58025324 56.2271443,7.08737885 C56.536297,11.2556595 56.2197836,15.0043758 55.8959093,17.3904201 C55.8664662,17.6111474 55.6806066,17.7826216 55.457943,17.7899183 C55.2279187,17.7972151 55.0328581,17.6403345 54.9905336,17.4269039 C53.7115984,10.9838548 51.1868515,5.4401327 49.6061244,2.38460967 C49.4331461,2.05625496 49.138715,1.81363731 48.7725162,1.70600993 C44.6099962,0.553120046 40.7511082,0.14632504 38.3496543,0.0186315399 C37.9245694,-0.00325877431 37.523407,0.175512125 37.249218,0.494745875 C36.9768692,0.823100589 36.8756585,1.24996172 36.9768692,1.65675672 C38.4361435,7.70760442 38.0478624,14.3841503 37.6945451,17.7753248 C37.6743029,17.9960521 37.4939639,18.1675262 37.2786611,18.1821198 C37.0633583,18.2021859 36.8535762,18.0671956 36.7965301,17.8610618 C35.6390478,13.8916182 33.0222911,5.46202302 30.4349776,1.07301501 C30.1755102,0.631560339 29.6731371,0.374349146 29.1560424,0.423602354 C25.6412708,0.744660296 22.2553128,1.24996172 19.2429144,2.59804024 C18.6466913,2.59804024 18.293374,3.23103516 18.3872239,3.8585575 C19.2649967,9.35302637 18.8619941,14.4625906 18.4589915,17.4907507 C18.4240278,17.711478 18.2436887,17.8318748 18.0136644,17.8391715 C17.7910009,17.8464683 17.5959402,17.6676974 17.546255,17.4469701 C16.7200076,13.2859862 15.3693048,9.48071987 14.0958902,6.49451617 C13.9100306,6.06035827 13.5419917,5.71923421 13.0893038,5.56965039 C12.6366159,5.42006658 12.1416036,5.46931979 11.7312402,5.70464067 C3.62334306,10.370926 0,15.8307352 0,21.4018202 C0,33.2590737 15.5993292,34.6637022 34.8496043,34.6637022 C54.0925187,34.6637022 69.6973684,33.2590737 69.6973684,21.4018202 C69.6973684,16.2940802 66.4843887,11.2629563 58.36177,5.91077446 L58.36177,5.91077446 Z" id="Fill-1" sketch:type="MSShapeGroup"></path>
            </g>
        </g>
    </g>
</svg>