<?xml version="1.0" encoding="UTF-8" standalone="no"?>
<svg width="69px" height="47px" viewBox="0 0 69 47" version="1.1" xmlns="http://www.w3.org/2000/svg" xmlns:xlink="http://www.w3.org/1999/xlink" xmlns:sketch="http://www.bohemiancoding.com/sketch/ns">
    <!-- Generator: Sketch 3.3.2 (12043) - http://www.bohemiancoding.com/sketch -->
    <title>turkey7</title>
    <desc>Created with Sketch.</desc>
    <defs>
        <path id="path-1" d="M0.110526316,0.845538462 L70,0.845538462 L70,46.9993846 L0.110526316,46.9993846 L0.110526316,0.845538462 Z"></path>
    </defs>
    <g id="leket-mobile-screens" stroke="none" stroke-width="1" fill="none" fill-rule="evenodd" sketch:type="MSPage">
        <g id="leket-mobile-main" sketch:type="MSArtboardGroup" transform="translate(-285.000000, -1336.000000)">
            <g id="turkey7" sketch:type="MSLayerGroup" transform="translate(285.000000, 1336.000000)">
                <mask id="mask-2" sketch:name="Clip 2" fill="white">
                    <use xlink:href="#path-1"></use>
                </mask>
                <g id="Clip-2"></g>
                <path d="M59.1628947,32.4036923 C55.6371053,38.5901538 47.5207895,38.2227692 40.4471053,38.1433846 C29.1347368,37.9993846 13.2042105,39.4929231 6.06605263,33.0166154 C-4.64210526,35.5329231 -0.0423684211,38.5975385 11.0673684,40.2572308 C16.9252632,48.1163077 51.3265789,48.1236923 57.1844737,40.2572308 C71.0352632,38.1932308 72.065,34.6744615 59.1628947,32.4036923 L59.1628947,32.4036923 Z" id="Fill-1" fill="#5C5344" sketch:type="MSShapeGroup" mask="url(#mask-2)"></path>
                <path d="M37.1018421,35.1507692 C48.7660526,35.1507692 58.7465789,36.7089231 57.8107895,23.5624615 C55.2557895,28.7833846 51.7944737,32.6049231 45.9384211,32.6049231 C33.4747368,32.6049231 27.3147368,13.0338462 48.2613158,7.50830769 C45.0376316,5.44615385 41.2097368,4.24984615 37.1018421,4.24984615 C25.6310526,4.24984615 5.64052632,13.5673846 5.64052632,25.0615385 C5.64052632,36.5501538 25.6310526,35.1507692 37.1018421,35.1507692 L37.1018421,35.1507692 Z" id="Fill-3" fill="#5C5344" sketch:type="MSShapeGroup" mask="url(#mask-2)"></path>
                <path d="M39.9718421,27.168 C43.2673684,30.4707692 48.615,30.4707692 51.9105263,27.168 C54.6294737,24.4412308 57.8973684,17.5107692 57.0978947,13.3218462 C57.2139474,13.1981538 61.4655263,8.94461538 61.5815789,8.81353846 C63.8768421,11.5827692 67.8907895,7.87015385 65.3873684,5.35938462 C64.6744737,4.64676923 63.6889474,4.74646154 62.7531579,4.74646154 C62.1286842,4.74646154 62.1931579,4.22030769 62.2134211,4.06153846 C62.3294737,3.30461538 62.3368421,2.47569231 61.7473684,1.704 C59.7542105,-0.899076923 55.3128947,3.03138462 58.2786842,5.51076923 C58.1552632,5.62707692 53.9110526,9.88246154 53.7876316,10.0043077 C49.6078947,9.20307692 42.6926316,12.4707692 39.9718421,15.2030769 C36.6689474,18.5058462 36.6689474,23.8652308 39.9718421,27.168 L39.9718421,27.168 Z" id="Fill-4" fill="#5C5344" sketch:type="MSShapeGroup" mask="url(#mask-2)"></path>
            </g>
        </g>
    </g>
</svg>